<?xml version="1.0" encoding="UTF-8" standalone="no"?>
<!-- Generator: Adobe Illustrator 15.0.0, SVG Export Plug-In . SVG Version: 6.00 Build 0)  -->

<svg
   xmlns:dc="http://purl.org/dc/elements/1.1/"
   xmlns:cc="http://creativecommons.org/ns#"
   xmlns:rdf="http://www.w3.org/1999/02/22-rdf-syntax-ns#"
   xmlns:svg="http://www.w3.org/2000/svg"
   xmlns="http://www.w3.org/2000/svg"
   xmlns:sodipodi="http://sodipodi.sourceforge.net/DTD/sodipodi-0.dtd"
   xmlns:inkscape="http://www.inkscape.org/namespaces/inkscape"
   version="1.1"
   id="Слой_1"
   x="0px"
   y="0px"
   width="570.625"
   height="127.052"
   viewBox="0 0 570.62497 127.052"
   enable-background="new 0 0 595.28 161.57"
   xml:space="preserve"
   inkscape:version="0.48.1 "
   sodipodi:docname="AJAX.svg"><metadata
   id="metadata49"><rdf:RDF><cc:Work
       rdf:about=""><dc:format>image/svg+xml</dc:format><dc:type
         rdf:resource="http://purl.org/dc/dcmitype/StillImage" /></cc:Work></rdf:RDF></metadata><defs
   id="defs47" /><sodipodi:namedview
   pagecolor="#ffffff"
   bordercolor="#666666"
   borderopacity="1"
   objecttolerance="10"
   gridtolerance="10"
   guidetolerance="10"
   inkscape:pageopacity="0"
   inkscape:pageshadow="2"
   inkscape:window-width="1280"
   inkscape:window-height="1004"
   id="namedview45"
   showgrid="false"
   fit-margin-top="0"
   fit-margin-left="0"
   fit-margin-right="0"
   fit-margin-bottom="0"
   inkscape:zoom="1.2271805"
   inkscape:cx="351.68183"
   inkscape:cy="-38.011485"
   inkscape:window-x="-8"
   inkscape:window-y="-8"
   inkscape:window-maximized="1"
   inkscape:current-layer="Слой_1" />
<g
   id="g3"
   transform="translate(-11.848001,-17.043)">
	<path
   d="M 13.12,80.57 V 80.558 C 13.122,63.02 20.167,47.136 31.553,35.644 42.93,24.16 58.65,17.051 76.01,17.043 h 0.022 0.011 c 17.374,0.003 33.111,7.12 44.489,18.61 v 0.009 c 11.378,11.488 18.42,27.36 18.433,44.881 v 0.026 0.014 c -0.013,17.529 -7.055,33.41 -18.444,44.908 h 0.011 C 109.144,136.98 93.428,144.09 76.065,144.095 H 76.032 76.021 C 58.655,144.09 42.924,136.981 31.544,125.487 20.167,114 13.128,98.124 13.12,80.597 V 80.57 l 0,0 z"
   id="path5"
   inkscape:connector-curvature="0"
   style="fill:#0054a1" />
	<path
   d="m 16.979,80.558 v 0.012 0.027 c 0.007,16.451 6.613,31.353 17.296,42.139 10.68,10.786 25.446,17.46 41.746,17.466 h 0.011 0.033 c 16.295,-0.014 31.053,-6.68 41.737,-17.46 l 0,0 c 10.684,-10.781 17.295,-25.693 17.295,-42.158 V 80.57 80.544 c 0,-16.456 -6.611,-31.354 -17.285,-42.138 l -0.011,0.002 C 107.117,27.621 92.359,20.943 76.043,20.94 H 76.032 76.01 C 59.716,20.945 44.961,27.62 34.281,38.401 23.597,49.185 16.979,64.097 16.979,80.558 l 0,0 z"
   id="path7"
   inkscape:connector-curvature="0"
   style="fill:#ffdd00" />
	<path
   clip-rule="evenodd"
   d="m 368.588,138.052 h 3.867 l 1.845,-2.876 h 5.175 l 0.114,2.876 h 3.608 L 382.183,124.56 H 377.7 l -9.112,13.492 0,0 z m 10.775,-5.427 h -3.448 l 3.286,-5.271 h 0.046 l 0.116,5.271 0,0 z"
   id="path9"
   inkscape:connector-curvature="0"
   style="fill:#0054a1;fill-rule:evenodd" />
	<polygon
   clip-rule="evenodd"
   points="401.48,124.56 397.544,138.052 397.544,138.052 401.14,138.052 405.089,124.56 "
   id="polygon11"
   style="fill:#0054a1;fill-rule:evenodd" />
	<path
   clip-rule="evenodd"
   d="m 423.316,127.117 h 1.707 c 1.068,0.017 1.603,0.425 1.523,1.392 -0.104,1.272 -1.354,1.664 -2.9,1.664 h -1.206 l 0.876,-3.056 0,0 z m -6.735,10.935 h 3.582 l 1.538,-5.328 h 0.387 c 1.602,0 1.706,0.133 1.899,1.896 l 0.388,3.433 h 3.561 l -0.592,-4.152 c -0.115,-0.867 -0.341,-2.303 -1.389,-2.394 l 0.012,-0.042 c 2.07,-0.25 3.983,-1.08 4.185,-3.458 0.299,-3.348 -2.772,-3.427 -5.313,-3.446 h -4.266 l -3.992,13.491 0,0 z"
   id="path13"
   inkscape:connector-curvature="0"
   style="fill:#0054a1;fill-rule:evenodd" />
	<polygon
   clip-rule="evenodd"
   points="446.595,135.388 449.761,124.56 446.128,124.56 442.193,138.052 442.193,138.052 451.396,138.052 452.182,135.388 "
   id="polygon15"
   style="fill:#0054a1;fill-rule:evenodd" />
	<polygon
   clip-rule="evenodd"
   points="469.761,124.56 465.815,138.052 465.815,138.052 469.42,138.052 473.358,124.56 "
   id="polygon17"
   style="fill:#0054a1;fill-rule:evenodd" />
	<polygon
   clip-rule="evenodd"
   points="490.902,128.718 492.882,138.052 497.329,138.052 501.336,124.56 497.954,124.56 495.269,133.919 495.236,133.919 493.313,124.56 488.842,124.56 484.826,138.052 484.826,138.052 488.196,138.052 490.856,128.718 "
   id="polygon19"
   style="fill:#0054a1;fill-rule:evenodd" />
	<polygon
   clip-rule="evenodd"
   points="516.888,135.51 517.801,132.455 523.364,132.455 524.137,129.898 518.562,129.898 519.416,127.117 525.297,127.117 526.025,124.56 516.627,124.56 512.59,138.052 512.59,138.052 522.26,138.052 522.999,135.51 "
   id="polygon21"
   style="fill:#0054a1;fill-rule:evenodd" />
	<path
   clip-rule="evenodd"
   d="m 549.988,124.935 c -0.864,-0.428 -2.401,-0.604 -4.038,-0.604 -2.937,0 -6.053,1.044 -6.35,4.527 -0.328,3.802 4.928,2.997 4.733,5.156 -0.114,1.39 -1.866,1.602 -2.982,1.602 -1.171,0 -2.559,-0.302 -3.229,-0.768 l -1.082,2.744 c 1.137,0.369 2.696,0.693 4.073,0.693 3.106,0 6.622,-0.961 6.94,-4.695 0.355,-4.097 -4.894,-3.385 -4.731,-5.298 0.101,-1.086 1.263,-1.294 2.673,-1.294 1.33,0 2.243,0.291 2.9,0.615 l 1.093,-2.678 0,0 z"
   id="path23"
   inkscape:connector-curvature="0"
   style="fill:#0054a1;fill-rule:evenodd" />
	<path
   clip-rule="evenodd"
   d="m 191.486,91.5 0.534,12.401 c 0.024,1.271 0.08,2.441 -0.193,3.417 -0.591,2.053 -2.536,3.128 -4.222,2.93 l -0.886,3.123 h 30.651 l 0.889,-3.123 c -2.254,-0.585 -3.232,-2.246 -3.505,-6.055 l -3.935,-61.01 H 198.244 L 162.471,98.34 c -5.484,8.392 -9.17,11.516 -13.254,11.907 l -0.876,3.123 h 22.517 l 0.899,-3.123 c -3.801,0.092 -4.449,-3.417 -3.563,-6.542 0.525,-1.854 1.515,-3.998 3.083,-6.445 l 3.574,-5.761 h 16.635 l 0,0.001 z m -0.285,-6.144 h -12.479 l 11.637,-18.839 0.842,18.839 0,0 z"
   id="path25"
   inkscape:connector-curvature="0"
   style="fill:#0054a1;fill-rule:evenodd" />
	<path
   clip-rule="evenodd"
   d="m 270.666,87.893 c 3.051,-9.078 3.834,-25.088 -14.243,-25.088 -14.316,0 -27.468,10.249 -32.304,27.237 -4.46,15.72 3.096,25.178 15.668,25.178 6.282,0 14.12,-2.041 24.861,-12.974 l -2.183,-2.836 c -4.269,3.417 -7.601,5.279 -11.47,5.279 -8.397,0 -8.58,-7.91 -6.157,-16.796 h 25.828 l 0,0 z m -24.27,-5.466 c 1.583,-5.564 4.211,-14.158 8.468,-14.158 1.932,0 3.436,1.856 0.043,14.158 h -8.511 l 0,0 z"
   id="path27"
   inkscape:connector-curvature="0"
   style="fill:#0054a1;fill-rule:evenodd" />
	<path
   clip-rule="evenodd"
   d="m 281.396,64.66 h 28.035 c 7.158,0 20.607,0.292 16.454,14.934 -2.138,7.517 -8.056,10.35 -15.624,11.424 l -0.19,0.684 c 4.882,0.879 5.245,4.687 5.813,7.419 l 1.457,6.147 c 1.001,4.297 2.664,5.274 4.117,5.565 l -0.714,2.538 h -20.028 l -2.775,-20.498 h -1.25 l -3.823,13.47 c -0.319,1.074 -0.775,4.395 2.582,4.49 l -0.715,2.538 H 267.56 l 0.718,-2.538 c 3.572,-0.291 4.617,-2.63 5.564,-5.956 l 9.011,-31.722 c 0.934,-3.323 1.217,-5.664 -2.172,-5.956 l 0.715,-2.539 0,0 z m 16.612,23.527 h 0.979 c 2.514,0 6.2,-1.077 8.576,-9.47 2.301,-8.1 -0.93,-8.591 -2.864,-8.591 h -1.559 l -5.132,18.061 0,0 z"
   id="path29"
   inkscape:connector-curvature="0"
   style="fill:#0054a1;fill-rule:evenodd" />
	<path
   clip-rule="evenodd"
   d="m 346.934,115.219 c 5.13,0 26.045,-1.849 32.984,-26.252 4.463,-15.718 -1.945,-26.163 -18.102,-26.163 -16.146,0 -28.49,10.445 -32.952,26.163 -6.928,24.404 12.939,26.252 18.07,26.252 l 0,0 z m 1.549,-5.46 c -5.701,0 -1.264,-13.573 0.783,-20.792 2.083,-7.323 5.303,-20.698 11.004,-20.698 5.711,0 1.329,13.375 -0.752,20.698 -2.059,7.219 -5.323,20.792 -11.035,20.792 l 0,0 z"
   id="path31"
   inkscape:connector-curvature="0"
   style="fill:#0054a1;fill-rule:evenodd" />
	<path
   clip-rule="evenodd"
   d="m 442.956,67.298 6.677,-23.53 h -3.573 l -0.249,0.88 c -0.58,2.049 -2.186,2.923 -3.927,2.923 -4.64,0 -6.394,-4.388 -16.063,-4.388 -9.766,0 -28.958,3.616 -34.126,21.77 -4.766,16.792 9.66,20.792 20.789,25.186 8.545,3.32 9.399,6.048 8.293,9.955 -2.104,7.42 -9.078,9.471 -13.617,9.471 -10.54,0 -18.582,-10.834 -17.706,-20.696 h -3.673 l -7.32,25.773 h 3.666 c 0.183,-0.976 1.264,-4.1 4.847,-4.1 5.597,0 9.194,4.678 20.321,4.678 6.576,0 27.172,-2.041 32.974,-22.449 4.2,-14.835 -5.155,-20.69 -13.266,-24.108 -8.217,-3.417 -15.829,-4.883 -13.779,-12.104 1.444,-5.076 7.439,-7.125 12.274,-7.125 3.483,0 7.784,1.172 10.821,4.781 3.199,3.713 3.576,8.88 3.051,13.084 h 3.586 l 0,-0.001 z"
   id="path33"
   inkscape:connector-curvature="0"
   style="fill:#0054a1;fill-rule:evenodd" />
	<path
   clip-rule="evenodd"
   d="m 451.463,115.219 h 11.506 l 24.169,-39.135 c 4.321,-7.028 6.313,-8.3 8.225,-8.886 l 0.718,-2.539 h -16.909 l -0.729,2.539 c 2.196,0.099 4.2,1.563 3.313,4.683 -0.365,1.273 -1.059,3.028 -3.084,6.444 l -7.227,12.496 h -0.384 L 471,74.325 c 0,-1.365 -0.146,-2.539 0.298,-4.102 0.441,-1.562 1.799,-2.926 3.277,-3.025 l 0.719,-2.539 h -27.562 l -0.703,2.539 c 2.114,0.686 2.707,2.342 2.832,6.343 l 1.602,41.678 0,0 z"
   id="path35"
   inkscape:connector-curvature="0"
   style="fill:#0054a1;fill-rule:evenodd" />
	<path
   clip-rule="evenodd"
   d="m 485.394,113.371 h 27.172 l 0.719,-2.538 c -3.393,-0.291 -3.12,-2.63 -2.172,-5.956 L 522.537,64.66 H 499.22 l -0.716,2.539 c 3.403,0.292 3.128,2.632 2.183,5.956 l -9.012,31.722 c -0.942,3.326 -2.001,5.665 -5.563,5.956 l -0.718,2.538 0,0 z"
   id="path37"
   inkscape:connector-curvature="0"
   style="fill:#0054a1;fill-rule:evenodd" />
	<path
   clip-rule="evenodd"
   d="m 530.746,104.876 c -1.17,4.103 -2.832,6.249 -6.334,5.956 l -0.717,2.538 h 28.717 l 0.716,-2.538 c -3.652,0.293 -4.107,-1.854 -2.935,-5.956 l 9.865,-34.75 c 9.466,-0.682 10.205,6.247 9.148,11.03 h 2.99 l 3.917,-16.496 h -48.438 l -5.461,16.496 h 2.991 c 1.647,-4.783 6.314,-11.711 15.416,-11.03 l -9.875,34.75 0,0 z"
   id="path39"
   inkscape:connector-curvature="0"
   style="fill:#0054a1;fill-rule:evenodd" />
	<polygon
   clip-rule="evenodd"
   points="501.871,55.719 501.871,55.719 505.135,44.216 582.473,44.216 "
   id="polygon41"
   style="fill:#0054a1;fill-rule:evenodd" />
	<polygon
   clip-rule="evenodd"
   points="95.522,69.273 158.228,69.273 82.119,96.62 111.032,96.62 11.848,138.141 11.848,138.141 69.114,43.099 152.688,43.099 "
   id="polygon43"
   style="fill:#0054a1;fill-rule:evenodd" />
</g>
</svg>