<?xml version="1.0" encoding="UTF-8" standalone="no"?>
<svg
   xmlns:dc="http://purl.org/dc/elements/1.1/"
   xmlns:cc="http://creativecommons.org/ns#"
   xmlns:rdf="http://www.w3.org/1999/02/22-rdf-syntax-ns#"
   xmlns:svg="http://www.w3.org/2000/svg"
   xmlns="http://www.w3.org/2000/svg"
   xmlns:xlink="http://www.w3.org/1999/xlink"
   version="1.1"
   id="layer"
   x="0px"
   y="0px"
   viewBox="0 0 500 170"
   xml:space="preserve"
   width="500"
   height="170"><metadata
   id="metadata54"><rdf:RDF><cc:Work
       rdf:about=""><dc:format>image/svg+xml</dc:format><dc:type
         rdf:resource="http://purl.org/dc/dcmitype/StillImage" /><dc:title></dc:title></cc:Work></rdf:RDF></metadata><defs
   id="defs52"><linearGradient
     id="linearGradient877"><stop
       style="stop-color:#ae4904;stop-opacity:1"
       offset="0"
       id="stop873" /><stop
       style="stop-color:#e99d01;stop-opacity:1"
       offset="0.5"
       id="stop881" /><stop
       style="stop-color:#f5ad00;stop-opacity:1"
       offset="1"
       id="stop875" /></linearGradient><linearGradient
     xlink:href="#linearGradient877"
     id="linearGradient879"
     x1="462.89999"
     y1="425.39999"
     x2="618.66693"
     y2="247.0834"
     gradientUnits="userSpaceOnUse" /><linearGradient
     xlink:href="#linearGradient877"
     id="linearGradient883"
     gradientUnits="userSpaceOnUse"
     x1="462.89999"
     y1="425.39999"
     x2="618.66693"
     y2="247.0834" /></defs>
<style
   type="text/css"
   id="style2">
	.st0{fill:#003E69;}
	.st1{fill:#CF003D;}
	.st2{clip-path:url(#SVGID_2_);fill:url(#SVGID_3_);}
</style>



<text
   xml:space="preserve"
   style="font-style:normal;font-variant:normal;font-weight:normal;font-stretch:normal;font-size:41.1189px;line-height:1.25;font-family:Araboto-Medium;-inkscape-font-specification:Araboto-Medium;fill:#f3ac00;fill-opacity:1;stroke-width:1.02797"
   x="4.7258973"
   y="119.82806"
   id="text871"><tspan
     id="tspan869"
     x="4.7258973"
     y="119.82806"
     style="fill:#f3ac00;fill-opacity:1;stroke-width:1.02797">Ukraine</tspan></text><g
   id="g8"
   transform="matrix(0.82330891,0,0,0.82330891,-18.253246,-185.93937)">
	<path
   class="st0"
   d="m 413.4,368.5 c -14,-20.7 -34.2,-32.6 -55.3,-32.6 h -54.3 l 38.5,56.8 c 14,20.7 34.2,32.6 55.3,32.6 h 54.3 z"
   id="path4" />
	<path
   class="st1"
   d="m 566.8,247 c -23.3,0 -49.1,18.3 -70.4,50.1 l -59.9,89.2 26.4,39.1 h 7.4 c 23.3,0 49.1,-18.3 70.4,-50.1 L 626.9,247 Z"
   id="path6" />
</g><g
   id="g31"
   transform="matrix(0.82330891,0,0,0.82330891,-18.253246,-185.93937)"
   style="fill:url(#linearGradient879);fill-opacity:1">
	<defs
   id="defs11"
   style="fill:url(#linearGradient879);fill-opacity:1"><path
     id="SVGID_1_"
     d="m 566.8,247 c -23.3,0 -49.1,18.3 -70.4,50.1 l -59.9,89.2 26.5,39.1 h 7.4 c 23.3,0 49.1,-18.3 70.4,-50.1 L 626.9,247 Z"
     style="fill:url(#linearGradient879);fill-opacity:1" /></defs>
	<clipPath
   id="SVGID_2_"
   style="fill:url(#linearGradient879);fill-opacity:1">
		<use
   xlink:href="#SVGID_1_"
   style="overflow:visible;fill:url(#linearGradient879);fill-opacity:1"
   id="use13"
   x="0"
   y="0"
   width="100%"
   height="100%" />
	</clipPath>
	
		<linearGradient
   id="SVGID_3_"
   gradientUnits="userSpaceOnUse"
   x1="34.3162"
   y1="746.60577"
   x2="42.616901"
   y2="746.60577"
   gradientTransform="matrix(0,-67.3946,-67.3946,0,50848.855,2738.022)"
   style="fill:url(#linearGradient879);fill-opacity:1">
		<stop
   offset="0"
   style="stop-color:#7B1215;fill-opacity:1;fill:url(#linearGradient879)"
   id="stop16" />
		<stop
   offset="5.500000e-003"
   style="stop-color:#7B1215;fill-opacity:1;fill:url(#linearGradient879)"
   id="stop18" />
		<stop
   offset="0.1279"
   style="stop-color:#880F16;fill-opacity:1;fill:url(#linearGradient879)"
   id="stop20" />
		<stop
   offset="0.3559"
   style="stop-color:#AC0919;fill-opacity:1;fill:url(#linearGradient879)"
   id="stop22" />
		<stop
   offset="0.5769"
   style="stop-color:#D4011C;fill-opacity:1;fill:url(#linearGradient879)"
   id="stop24" />
		<stop
   offset="1"
   style="stop-color:#D4011C;fill-opacity:1;fill:url(#linearGradient879)"
   id="stop26" />
	</linearGradient>
	<rect
   x="436.5"
   y="247"
   class="st2"
   width="190.39999"
   height="178.3"
   clip-path="url(#SVGID_2_)"
   id="rect29"
   style="fill:url(#linearGradient883);fill-opacity:1" />
</g><g
   id="g47"
   transform="matrix(0.82330891,0,0,0.82330891,-18.253246,-185.93937)">
	<path
   class="st0"
   d="m 71.3,310 c -1.9,2.1 -3.9,3.7 -6.2,5 -2.3,1.3 -4.6,2.3 -6.8,3 -2.3,0.7 -4.4,1.2 -6.4,1.5 -2,0.3 -3.7,0.4 -5,0.4 -4.4,0 -7.9,-0.6 -10.5,-1.9 -2.6,-1.3 -4.6,-2.9 -6,-5 -1.4,-2 -2.3,-4.3 -2.8,-6.8 -0.5,-2.5 -0.7,-5 -0.7,-7.4 -0.1,-4.5 0.6,-8.2 2,-11.2 1.4,-3 3.3,-5.3 5.7,-7.1 2.4,-1.8 5.3,-3 8.6,-3.8 3.3,-0.7 7,-1.1 10.9,-1.1 h 14.7 v -1.1 c 0,-0.9 -0.1,-1.7 -0.3,-2.4 -0.2,-0.7 -0.7,-1.3 -1.4,-1.8 -0.7,-0.5 -1.7,-0.9 -3.1,-1.1 -1.4,-0.2 -3.3,-0.3 -5.6,-0.3 -0.8,0 -2,0 -3.4,0.1 -1.4,0.1 -3,0.2 -4.7,0.3 -1.7,0.1 -3.4,0.2 -5,0.4 -1.7,0.2 -3.2,0.3 -4.5,0.4 -1.2,0.2 -2.2,0.3 -2.9,0.3 -0.7,0 -1.3,0 -1.8,-0.2 -0.5,-0.2 -0.8,-0.5 -1,-1 -0.2,-0.5 -0.4,-1.1 -0.6,-2 l -2,-8.9 c -0.3,-1.4 -0.1,-2.6 0.5,-3.6 0.6,-1 2.3,-2 5,-3 1.7,-0.6 3.6,-1.2 5.8,-1.7 2.2,-0.5 4.4,-0.8 6.6,-1.1 2.2,-0.3 4.4,-0.5 6.6,-0.6 2.1,-0.1 4,-0.2 5.6,-0.2 7,0 12.6,0.6 16.7,1.8 4.2,1.2 7.4,3 9.7,5.2 2.3,2.3 3.8,5.1 4.5,8.5 0.7,3.4 1.1,7.3 1.1,11.7 v 17.9 c 0,3 0.3,4.8 1.1,5.5 0.7,0.7 2.1,1.2 4.2,1.5 1.3,0.2 2.1,0.4 2.5,0.8 0.4,0.3 0.6,1 0.6,2 v 11.4 c 0,1.2 -0.4,2.1 -1.3,2.7 -0.8,0.6 -2,1 -3.3,1.4 -1.7,0.5 -3.3,0.8 -5,0.9 -1.7,0.1 -3.4,0.2 -5.3,0.2 -1.8,0 -3.5,-0.1 -5.2,-0.4 -1.7,-0.2 -3.3,-0.7 -4.7,-1.4 -1.4,-0.7 -2.7,-1.7 -3.8,-2.9 -1.1,-1.2 -2,-2.8 -2.5,-4.9 z m -3.1,-18.4 h -9.1 c -1.8,0 -3.2,0.4 -4.2,1.3 -1,0.8 -1.5,2.3 -1.5,4.5 0,1.4 0.3,2.4 0.9,2.9 0.6,0.6 1.7,0.8 3.3,0.8 1.6,0 3.4,-0.3 5.4,-1 2,-0.7 3.8,-1.5 5.2,-2.3 z"
   id="path33" />
	<path
   class="st0"
   d="m 166.4,298.4 c 2.2,0 3.4,1.2 3.4,3.5 v 13.5 c 0,2.2 -1.1,3.4 -3.4,3.4 h -54.1 c -1.4,0 -2.3,-0.3 -2.6,-0.8 -0.4,-0.6 -0.6,-1.3 -0.6,-2.4 v -11 c 0,-0.7 0.1,-1.6 0.3,-2.6 0.2,-1 0.9,-2.2 2.2,-3.6 l 25.7,-28.6 h -22.9 c -2.2,0 -3.3,-1.2 -3.3,-3.5 v -13.5 c 0,-2.2 1.1,-3.3 3.3,-3.3 h 51.2 c 1.4,0 2.3,0.3 2.7,0.8 0.4,0.6 0.6,1.3 0.6,2.4 v 11.1 c 0,0.8 -0.1,1.7 -0.3,2.7 -0.2,1 -1,2.2 -2.2,3.5 l -25.5,28.4 z"
   id="path35" />
	<path
   class="st0"
   d="m 221.2,312.8 -0.3,-0.1 c -3.5,2.7 -7.2,4.6 -11,5.6 -3.8,1.1 -7,1.6 -9.6,1.6 -5.1,0 -9.1,-0.8 -11.9,-2.4 -2.8,-1.6 -4.9,-3.8 -6.2,-6.4 -1.4,-2.6 -2.1,-5.6 -2.4,-8.9 -0.2,-3.3 -0.3,-6.7 -0.3,-10.1 v -39.2 c 0,-0.6 0.2,-1.3 0.5,-2.1 0.3,-0.8 1.2,-1.3 2.7,-1.3 h 19.7 c 1.3,0 2.2,0.3 2.6,1 0.5,0.6 0.7,1.4 0.7,2.4 v 34.3 c 0,3.6 0.6,5.9 2,6.9 1.3,1 3,1.5 5.2,1.5 1.6,0 3,-0.3 4.4,-0.8 1.3,-0.5 2.7,-1 4,-1.5 v -40.5 c 0,-0.6 0.2,-1.3 0.5,-2.1 0.3,-0.8 1.2,-1.3 2.7,-1.3 h 19.7 c 1.3,0 2.2,0.3 2.7,1 0.5,0.6 0.7,1.4 0.7,2.4 v 62.6 c 0,0.9 -0.2,1.7 -0.7,2.4 -0.5,0.7 -1.4,1 -2.7,1 h -19.7 c -1.5,0 -2.4,-0.4 -2.7,-1.3 -0.3,-0.8 -0.5,-1.5 -0.5,-2.1 v -2.6 z"
   id="path37" />
	<path
   class="st0"
   d="m 287.8,259.9 0.3,0.3 c 1.4,-1.5 3,-2.9 4.7,-4.3 1.8,-1.3 3.6,-2.5 5.4,-3.5 1.8,-1 3.6,-1.8 5.2,-2.4 1.7,-0.7 3.2,-1.1 4.5,-1.3 2,-0.3 3.3,-0.2 4.1,0.1 0.8,0.3 1.3,1.6 1.6,3.7 l 2.1,17.3 c 0.1,0.7 0.1,1.4 0.1,1.9 0,0.5 -0.1,0.9 -0.4,1.3 -0.3,0.3 -0.8,0.6 -1.5,0.8 -0.7,0.2 -1.7,0.5 -3,0.8 -4.4,0.8 -8.3,1.7 -11.8,2.5 -3.5,0.8 -7.3,2 -11.4,3.3 v 35 c 0,0.6 -0.2,1.3 -0.5,2.1 -0.3,0.8 -1.2,1.3 -2.7,1.3 h -19.7 c -1.3,0 -2.2,-0.3 -2.7,-1 -0.5,-0.7 -0.7,-1.4 -0.7,-2.4 v -62.6 c 0,-0.9 0.2,-1.7 0.7,-2.4 0.5,-0.6 1.4,-1 2.7,-1 h 19.7 c 1.5,0 2.4,0.4 2.7,1.3 0.3,0.8 0.5,1.5 0.5,2.1 v 7.1 z"
   id="path39" />
	<path
   class="st0"
   d="m 369,310.8 c -2,1.2 -4.1,2.3 -6.1,3.4 -2.1,1.1 -4.2,2 -6.6,2.9 -2.3,0.8 -4.8,1.5 -7.4,2 -2.6,0.5 -5.4,0.8 -8.5,0.8 -6.3,0 -10.9,-1.6 -13.7,-4.7 -2.8,-3.1 -4.2,-7.8 -4.2,-13.9 0,-7.9 2,-13.8 5.9,-17.5 4,-3.7 10.3,-5.6 19,-5.6 H 369 V 272 c 0,-2.8 -0.3,-5.1 -0.8,-7.1 -0.5,-1.9 -1.4,-3.5 -2.8,-4.8 -1.3,-1.2 -3.2,-2.2 -5.5,-2.8 -2.3,-0.6 -5.3,-0.9 -8.8,-0.9 -3,0 -6.3,0.1 -9.9,0.4 -3.6,0.3 -7.1,0.6 -10.3,1 -1.3,0.1 -2,-0.2 -2.1,-1 l -0.6,-2.5 c 0,-0.9 0.5,-1.6 1.5,-2.1 1.5,-0.6 3.2,-1 5.2,-1.4 2,-0.4 4,-0.7 6,-0.9 2,-0.2 4,-0.4 5.9,-0.5 1.9,-0.1 3.6,-0.1 5.1,-0.1 5.2,0 9.4,0.5 12.6,1.5 3.2,1 5.7,2.5 7.5,4.5 1.8,2 3,4.5 3.7,7.5 0.7,3 1,6.5 1,10.5 v 34.3 c 0,1.3 0.1,2.3 0.3,3 0.2,0.7 0.5,1.2 0.9,1.6 0.4,0.4 1,0.6 1.7,0.8 0.7,0.1 1.7,0.3 2.9,0.3 1,0 1.5,0.4 1.5,1.3 v 2.8 c 0,0.5 -0.1,0.8 -0.4,1.1 -0.3,0.3 -0.8,0.5 -1.7,0.7 -4.6,0.5 -7.8,0.1 -9.8,-1 -2,-1.1 -3.1,-3.6 -3.3,-7.4 z m 0.1,-25.8 h -22.6 c -2.4,0 -4.6,0.2 -6.5,0.7 -2,0.5 -3.6,1.3 -5,2.5 -1.4,1.2 -2.5,2.8 -3.2,4.9 -0.7,2 -1.1,4.6 -1.1,7.8 0,4.6 0.9,7.8 2.7,9.5 1.8,1.7 5.1,2.5 9.8,2.5 2,0 4.3,-0.3 6.8,-1 2.5,-0.6 5,-1.4 7.4,-2.4 2.4,-0.9 4.6,-1.9 6.7,-2.9 2,-1 3.7,-1.8 5,-2.6 z"
   id="path41" />
	<path
   class="st0"
   d="m 406.1,234.1 c 0,1.4 -0.3,2.6 -0.8,3.6 -0.6,1 -1.9,1.5 -3.9,1.5 -2.1,0 -3.5,-0.5 -4,-1.5 -0.5,-1 -0.8,-2.2 -0.8,-3.6 0,-1.4 0.3,-2.6 0.9,-3.5 0.6,-0.9 1.9,-1.4 3.8,-1.4 2,0 3.2,0.4 3.8,1.3 0.7,0.9 1,2.1 1,3.6 m -8.5,18.8 c 0,-0.8 0.2,-1.4 0.5,-1.7 0.3,-0.3 0.9,-0.4 1.6,-0.4 h 3.5 c 0.7,0 1.2,0.1 1.5,0.4 0.2,0.3 0.3,0.8 0.3,1.7 v 63.8 c 0,0.8 -0.1,1.4 -0.3,1.7 -0.2,0.3 -0.7,0.4 -1.5,0.4 h -3.5 c -0.7,0 -1.3,-0.1 -1.6,-0.4 -0.3,-0.3 -0.5,-0.8 -0.5,-1.7 z"
   id="path43" />
	<path
   class="st0"
   d="m 451.8,257.8 c -1.9,0.4 -3.7,0.9 -5.5,1.5 -1.8,0.7 -3.6,1.3 -5.2,2 -1.7,0.7 -3.2,1.4 -4.5,2 -1.4,0.7 -2.4,1.2 -3.1,1.5 v 51.8 c 0,1.4 -0.7,2.1 -2.1,2.1 h -3.8 c -0.8,0 -1.3,-0.1 -1.5,-0.4 -0.2,-0.3 -0.4,-0.8 -0.4,-1.7 v -63.8 c 0,-1.4 0.6,-2.1 1.8,-2.1 h 3.7 c 0.8,0 1.3,0.1 1.6,0.4 0.3,0.3 0.5,0.8 0.5,1.7 v 6.1 c 0.6,-0.5 1.6,-1.1 2.9,-2 1.3,-0.8 2.8,-1.7 4.4,-2.5 1.6,-0.8 3.3,-1.7 5.2,-2.5 1.8,-0.8 3.6,-1.5 5.5,-2 0.5,-0.2 0.8,-0.2 0.9,0 0.1,0.2 0.3,0.5 0.3,1 l 0.6,4.7 c 0.1,1.3 -0.3,1.9 -1.3,2.2"
   id="path45" />
</g></svg>
